<svg width="197" height="73" viewBox="0 0 197 73" fill="none" xmlns="http://www.w3.org/2000/svg">
<path d="M23.9835 0.000182987C10.7902 0.0513565 0 11.2763 0 24.4696V52.0737C0 60.6091 6.91897 67.5281 15.4544 67.5281V46.5538V24.2907C15.4544 19.8956 19.0212 15.8149 23.4037 15.4799C28.7885 15.0679 33.2464 19.6355 32.6487 25.053C32.2235 28.9079 29.1837 32.0591 25.3446 32.6109C22.385 33.0366 19.6654 31.9409 17.8268 30.001V39.9313C17.8268 44.7364 21.9851 48.5422 26.76 48.0057C26.8408 47.9967 26.922 47.9872 27.0027 47.9772C38.4883 46.5697 47.4595 37.0303 48.1168 25.4777C48.9103 11.5374 37.7682 -0.0531008 23.9835 0.000182987Z" fill="url(#paint0_linear_166_1007)"/>
<path d="M23.9834 0.000182987C23.5086 0.00229323 23.0385 0.0233949 22.5706 0.0529384C22.377 0.0655999 22.1849 0.0835367 21.9929 0.100946C21.7428 0.123104 21.4944 0.148956 21.2464 0.1785C20.9784 0.211208 20.7104 0.245498 20.445 0.287703C20.3437 0.30353 20.2435 0.322522 20.1427 0.339404C13.3414 1.51006 7.48126 5.65406 3.86218 11.3359C7.49023 8.25969 12.1803 6.3974 17.3097 6.3974C28.8053 6.3974 38.1242 15.7163 38.1242 27.2118C38.1242 36.8852 31.5217 45.0081 22.5795 47.342C23.8214 47.9091 25.2269 48.1618 26.6908 48.0104C26.7953 47.9988 26.8987 47.9909 27.0032 47.9777C38.4887 46.5702 47.4599 37.0308 48.1172 25.4783C48.9102 11.5374 37.7681 -0.0531008 23.9834 0.000182987Z" fill="url(#paint1_linear_166_1007)"/>
<path d="M0 38.771V52.0735C0 60.6089 6.91897 67.5279 15.4544 67.5279V47.9395C9.01023 47.3697 3.41016 43.8672 0 38.771Z" fill="url(#paint2_linear_166_1007)"/>
<path d="M64.9487 42H60.9546V27.8648H74.5799V42H70.5858V31.2074H64.9487V42ZM88.5207 31.2074H84.1584L84.1017 33.1903C84.0073 35.2865 83.7901 36.9389 83.4502 38.1475C83.0914 39.4128 82.5249 40.3854 81.7506 41.0652C80.9952 41.7262 79.9471 42.0755 78.6063 42.1133C77.9076 42.1133 77.4071 42.0283 77.105 41.8584V38.6008C77.3127 38.6763 77.5865 38.7141 77.9264 38.7141C78.8518 38.7141 79.4655 38.1098 79.7677 36.9011C80.051 35.8247 80.202 34.2006 80.2209 32.0289L80.3059 27.8648H92.5149V42H88.5207V31.2074ZM109.874 38.9124C110.214 38.9124 110.488 38.8557 110.696 38.7424V41.6601C110.186 42.0567 109.468 42.2549 108.543 42.2549C106.937 42.2549 105.87 41.6506 105.342 40.442C104.095 41.7262 102.471 42.3683 100.469 42.3683C98.9209 42.3683 97.6651 41.9339 96.702 41.0652C95.7388 40.1965 95.2573 39.054 95.2573 37.6376C95.2573 36.1269 95.8049 34.9749 96.9002 34.1817C97.9956 33.3886 99.308 32.992 100.838 32.992C102.443 32.992 103.803 33.2847 104.917 33.8701V33.4452C104.917 31.6701 103.67 30.7825 101.178 30.7825C99.648 30.7825 98.2222 31.1791 96.9002 31.9722V28.6296C98.3355 27.8743 100.082 27.4966 102.141 27.4966C104.18 27.4966 105.804 27.9876 107.013 28.9696C108.259 29.9516 108.883 31.3113 108.883 33.0487V37.8359C108.883 38.5535 109.213 38.9124 109.874 38.9124ZM104.917 37.8359V36.4196C104.086 35.8719 103.104 35.5981 101.971 35.5981C101.121 35.5981 100.441 35.7586 99.9312 36.0797C99.4402 36.4007 99.1947 36.8539 99.1947 37.4393C99.1947 38.0437 99.4213 38.5063 99.8746 38.8274C100.328 39.1295 100.942 39.2806 101.716 39.2806C103.113 39.2806 104.18 38.799 104.917 37.8359ZM119.734 42H115.74V31.2074H111.321V27.8648H124.21V31.2074H119.734V42ZM133.483 42.3683C131.274 42.3683 129.414 41.6884 127.903 40.3287C126.392 38.969 125.637 37.1655 125.637 34.9182C125.637 32.822 126.317 31.0658 127.676 29.6494C129.036 28.2142 130.811 27.4966 133.002 27.4966C135.041 27.4966 136.675 28.2236 137.902 29.6777C139.13 31.1319 139.744 32.8976 139.744 34.9749V36.023H129.602C129.81 36.9672 130.33 37.6943 131.16 38.2042C132.01 38.7141 133.068 38.969 134.333 38.969C135.901 38.969 137.411 38.5535 138.865 37.7226V40.9236C137.6 41.8867 135.806 42.3683 133.483 42.3683ZM129.602 33.4736H135.806C135.768 32.6615 135.476 31.9911 134.928 31.4623C134.399 30.9147 133.7 30.6409 132.832 30.6409C131.944 30.6409 131.208 30.9052 130.622 31.434C130.037 31.9439 129.697 32.6238 129.602 33.4736ZM137.364 25.2871C136.967 25.6836 136.476 25.8819 135.891 25.8819C135.306 25.8819 134.805 25.6836 134.39 25.2871C133.993 24.8716 133.795 24.3711 133.795 23.7857C133.795 23.2003 133.993 22.7093 134.39 22.3127C134.805 21.9161 135.306 21.7178 135.891 21.7178C136.476 21.7178 136.967 21.9161 137.364 22.3127C137.78 22.7093 137.987 23.2003 137.987 23.7857C137.987 24.3711 137.78 24.8716 137.364 25.2871ZM129.659 25.8819C129.093 25.8819 128.602 25.6836 128.186 25.2871C127.771 24.8716 127.563 24.3711 127.563 23.7857C127.563 23.2192 127.771 22.7376 128.186 22.341C128.602 21.9256 129.093 21.7178 129.659 21.7178C130.245 21.7178 130.736 21.9161 131.132 22.3127C131.548 22.7093 131.755 23.2003 131.755 23.7857C131.755 24.3711 131.548 24.8716 131.132 25.2871C130.736 25.6836 130.245 25.8819 129.659 25.8819ZM145.235 42H140.504L146.594 34.465L141.127 27.8648H145.631L149.937 33.1903V27.8648H153.875V33.1903L158.152 27.8648H162.656L157.189 34.465L163.307 42H158.548L153.875 35.9663V42H149.937V35.9663L145.235 42ZM169.626 42H165.632V27.8648H169.626V33.0203L174.498 27.8648H179.399L173.252 34.2384L180.362 42H175.206L169.626 35.9097V42ZM195.768 38.9124C196.108 38.9124 196.382 38.8557 196.589 38.7424V41.6601C196.08 42.0567 195.362 42.2549 194.437 42.2549C192.831 42.2549 191.764 41.6506 191.236 40.442C189.989 41.7262 188.365 42.3683 186.363 42.3683C184.815 42.3683 183.559 41.9339 182.596 41.0652C181.633 40.1965 181.151 39.054 181.151 37.6376C181.151 36.1269 181.699 34.9749 182.794 34.1817C183.89 33.3886 185.202 32.992 186.732 32.992C188.337 32.992 189.697 33.2847 190.811 33.8701V33.4452C190.811 31.6701 189.564 30.7825 187.072 30.7825C185.542 30.7825 184.116 31.1791 182.794 31.9722V28.6296C184.229 27.8743 185.976 27.4966 188.035 27.4966C190.074 27.4966 191.698 27.9876 192.907 28.9696C194.153 29.9516 194.777 31.3113 194.777 33.0487V37.8359C194.777 38.5535 195.107 38.9124 195.768 38.9124ZM190.811 37.8359V36.4196C189.98 35.8719 188.998 35.5981 187.865 35.5981C187.015 35.5981 186.335 35.7586 185.825 36.0797C185.334 36.4007 185.089 36.8539 185.089 37.4393C185.089 38.0437 185.315 38.5063 185.769 38.8274C186.222 39.1295 186.836 39.2806 187.61 39.2806C189.007 39.2806 190.074 38.799 190.811 37.8359Z" fill="#343433"/>
<defs>
<linearGradient id="paint0_linear_166_1007" x1="-4.90474" y1="53.5701" x2="41.3508" y2="7.31462" gradientUnits="userSpaceOnUse">
<stop stop-color="#227D19"/>
<stop offset="1" stop-color="#183815"/>
</linearGradient>
<linearGradient id="paint1_linear_166_1007" x1="-13.2646" y1="61.528" x2="40.5764" y2="7.68713" gradientUnits="userSpaceOnUse">
<stop stop-color="#106907"/>
<stop offset="1" stop-color="#228D18"/>
</linearGradient>
<linearGradient id="paint2_linear_166_1007" x1="-6.9577" y1="67.8346" x2="46.8831" y2="13.9937" gradientUnits="userSpaceOnUse">
<stop stop-color="#18790F"/>
<stop offset="1" stop-color="#27D517"/>
</linearGradient>
</defs>
</svg>
