<svg width="24" height="24" viewBox="0 0 24 24" fill="none" xmlns="http://www.w3.org/2000/svg">
<g clip-path="url(#clip0_117_2629)">
<path d="M12.0093 24.0187C18.6419 24.0187 24.0187 18.6419 24.0187 12.0093C24.0187 5.37677 18.6419 0 12.0093 0C5.37677 0 0 5.37677 0 12.0093C0 18.6419 5.37677 24.0187 12.0093 24.0187Z" fill="url(#paint0_linear_117_2629)"/>
<path fill-rule="evenodd" clip-rule="evenodd" d="M5.4248 11.8785C8.92285 10.3446 11.2611 9.35321 12.4396 8.86685C15.7693 7.48259 16.4614 7.23941 16.9104 7.2207C17.0039 7.2207 17.2284 7.23941 17.378 7.35165C17.4903 7.44518 17.5277 7.57612 17.5464 7.66965C17.5651 7.76318 17.5838 7.96895 17.5651 8.13731C17.378 10.0266 16.6111 14.647 16.1995 16.7608C16.0312 17.6587 15.6945 17.958 15.3765 17.9955C14.6843 18.0516 14.1419 17.5278 13.4684 17.0976C12.4209 16.4054 11.8223 15.9752 10.7935 15.3018C9.61498 14.5161 10.3819 14.0859 11.0554 13.3937C11.2237 13.2067 14.3102 10.4195 14.3663 10.1576C14.3663 10.1202 14.385 10.0079 14.3102 9.9518C14.2354 9.89568 14.1419 9.91439 14.067 9.9331C13.9548 9.9518 12.2713 11.0742 8.99767 13.2815C8.51131 13.6182 8.08107 13.7679 7.68824 13.7679C7.258 13.7679 6.43493 13.5247 5.81763 13.3189C5.06938 13.0757 4.47078 12.9448 4.5269 12.5333C4.56432 12.3275 4.86361 12.103 5.4248 11.8785Z" fill="white"/>
</g>
<defs>
<linearGradient id="paint0_linear_117_2629" x1="0" y1="12.0007" x2="24.0013" y2="12.0007" gradientUnits="userSpaceOnUse">
<stop stop-color="#2AABEE"/>
<stop offset="1" stop-color="#229ED9"/>
</linearGradient>
<clipPath id="clip0_117_2629">
<rect width="24" height="24" fill="white"/>
</clipPath>
</defs>
</svg>
