<svg width="24" height="24" viewBox="0 0 24 24" fill="none" xmlns="http://www.w3.org/2000/svg">
<rect width="24" height="24" rx="12" fill="#25D366"/>
<g clip-path="url(#clip0_117_2634)">
<path fill-rule="evenodd" clip-rule="evenodd" d="M17.6687 6.32334C16.1648 4.82586 14.1647 4.00076 12.0336 4C7.64227 4 4.06838 7.55377 4.06685 11.922C4.06608 13.3184 4.43318 14.6814 5.13031 15.8826L4 19.9883L8.22327 18.8867C9.3868 19.5181 10.697 19.8504 12.0302 19.8508H12.0336C16.4242 19.8508 19.9985 16.2967 20 11.9284C20.0008 9.8114 19.173 7.8212 17.6687 6.32372V6.32334ZM12.0336 18.5129H12.0309C10.8429 18.5125 9.67751 18.1949 8.66067 17.5951L8.41885 17.4523L5.91262 18.106L6.58148 15.6759L6.4241 15.4267C5.76135 14.3783 5.41107 13.1665 5.41183 11.9224C5.41336 8.29187 8.38371 5.33793 12.0363 5.33793C13.8049 5.33869 15.4673 6.02438 16.7176 7.26924C17.9678 8.51372 18.6558 10.1685 18.655 11.9277C18.6535 15.5586 15.6832 18.5125 12.0336 18.5125V18.5129ZM15.6656 13.5813C15.4665 13.4822 14.4879 13.0035 14.3053 12.9374C14.1227 12.8713 13.9902 12.8383 13.8576 13.0366C13.7251 13.2349 13.3435 13.6808 13.2273 13.8126C13.1112 13.9448 12.9951 13.9612 12.796 13.862C12.5971 13.7629 11.9557 13.5539 11.1952 12.8796C10.6035 12.3547 10.2039 11.7066 10.0878 11.5083C9.97164 11.31 10.0756 11.2029 10.1748 11.1045C10.2642 11.0156 10.3739 10.8731 10.4736 10.7577C10.5733 10.6422 10.6061 10.5594 10.6726 10.4275C10.7391 10.2953 10.7058 10.1799 10.6562 10.0807C10.6065 9.98157 10.2085 9.00716 10.0423 8.61096C9.88071 8.22501 9.71649 8.27744 9.59462 8.27098C9.47849 8.26528 9.34596 8.26414 9.21302 8.26414C9.08009 8.26414 8.86462 8.31353 8.68204 8.51182C8.49947 8.7101 7.98529 9.18913 7.98529 10.1631C7.98529 11.1371 8.69849 12.0789 8.79818 12.2111C8.89787 12.3433 10.202 14.3426 12.1986 15.2004C12.6735 15.4043 13.0444 15.5263 13.3335 15.6175C13.8103 15.7683 14.2442 15.747 14.5872 15.6961C14.9696 15.6391 15.7649 15.2171 15.9307 14.7547C16.0964 14.2924 16.0964 13.8958 16.0468 13.8134C15.9972 13.731 15.8642 13.6812 15.6652 13.5821L15.6656 13.5813Z" fill="white"/>
</g>
<defs>
<clipPath id="clip0_117_2634">
<rect width="16" height="16" fill="white" transform="translate(4 4)"/>
</clipPath>
</defs>
</svg>
